<?xml version="1.0" encoding="utf-8"?>
<!-- Generator: Adobe Illustrator 17.0.0, SVG Export Plug-In . SVG Version: 6.00 Build 0)  -->
<!DOCTYPE svg PUBLIC "-//W3C//DTD SVG 1.1//EN" "http://www.w3.org/Graphics/SVG/1.1/DTD/svg11.dtd">
<svg version="1.1" id="Layer_1" xmlns="http://www.w3.org/2000/svg" xmlns:xlink="http://www.w3.org/1999/xlink" x="0px" y="0px"
	 width="236.634px" height="98.262px" viewBox="306.945 107.893 236.634 98.262"
	 enable-background="new 306.945 107.893 236.634 98.262" xml:space="preserve">
<g>
	<path fill="#E30613" d="M337.106,177.316c3.439-1.323,5.979-3.387,7.514-6.191c1.535-2.804,2.275-6.244,2.275-10.318
		c0-6.138-1.799-10.953-5.397-14.34c-3.598-3.387-9.101-5.08-16.615-5.08h-17.938v64.767h12.382v-26.351h5.926l10.795,26.351h13.282
		L337.106,177.316z M332.185,167.474c-1.535,1.429-3.704,2.117-6.456,2.117h-6.35v-17.938h6.35c2.752,0,4.921,0.688,6.456,2.117
		c1.587,1.429,2.328,3.704,2.328,6.879C334.514,163.77,333.72,166.099,332.185,167.474z"/>
	<path fill="#E30613" d="M396.159,152.076c-1.005-2.752-2.434-4.974-4.233-6.667c-1.799-1.693-3.969-2.963-6.456-3.704
		c-2.54-0.794-5.291-1.164-8.255-1.164c-3.016,0-5.715,0.37-8.255,1.164c-2.487,0.794-4.656,2.011-6.456,3.704
		s-3.228,3.916-4.233,6.667c-1.005,2.752-1.535,6.138-1.535,10.16v22.224c0,4.022,0.529,7.408,1.535,10.16s2.434,4.974,4.233,6.667
		s3.969,2.963,6.456,3.704c2.54,0.794,5.291,1.164,8.255,1.164s5.768-0.37,8.255-1.164s4.656-2.011,6.456-3.704
		s3.228-3.916,4.233-6.667s1.535-6.138,1.535-10.16v-22.224C397.693,158.214,397.164,154.828,396.159,152.076z M385.311,186.047
		c0,3.598-0.741,6.032-2.169,7.249c-1.429,1.27-3.439,1.905-5.926,1.905c-2.54,0-4.498-0.635-5.926-1.905
		c-1.429-1.27-2.169-3.651-2.169-7.249v-25.452c0-3.598,0.741-6.032,2.169-7.249c1.429-1.27,3.387-1.905,5.926-1.905
		c2.487,0,4.498,0.635,5.926,1.905c1.429,1.27,2.169,3.704,2.169,7.249V186.047z"/>
	<path fill="#E30613" d="M444.523,152.076c-1.005-2.752-2.434-4.974-4.233-6.667c-1.799-1.693-3.969-2.963-6.456-3.704
		c-2.487-0.794-5.239-1.164-8.255-1.164c-3.016,0-5.768,0.37-8.255,1.164c-2.487,0.794-4.656,2.011-6.456,3.704
		s-3.175,3.916-4.233,6.667c-1.005,2.752-1.535,6.138-1.535,10.16v22.224c0,4.022,0.529,7.408,1.535,10.16s2.434,4.974,4.233,6.667
		c1.799,1.693,3.969,2.963,6.456,3.704c2.487,0.794,5.239,1.164,8.255,1.164c3.016,0,5.715-0.37,8.255-1.164
		c2.487-0.794,4.656-2.011,6.456-3.704c1.799-1.693,3.228-3.916,4.233-6.667s1.535-6.138,1.535-10.16v-22.224
		C446.057,158.214,445.528,154.828,444.523,152.076z M433.675,186.047c0,3.598-0.688,6.032-2.169,7.249
		c-1.429,1.27-3.387,1.905-5.926,1.905s-4.498-0.635-5.926-1.905c-1.429-1.27-2.169-3.651-2.169-7.249v-25.452
		c0-3.598,0.741-6.032,2.169-7.249c1.429-1.27,3.439-1.905,5.926-1.905c2.487,0,4.498,0.635,5.926,1.905
		c1.429,1.27,2.169,3.704,2.169,7.249V186.047z"/>
	<path fill="#E30613" d="M483.574,159.431c-1.005-3.069-2.222-5.291-3.704-6.667c-1.429-1.376-3.228-2.064-5.397-2.064
		c-2.222,0-3.916,0.635-5.08,1.905c-1.164,1.27-1.746,3.016-1.746,5.186c0,1.64,0.688,3.016,2.064,4.286
		c1.376,1.217,3.069,2.434,5.133,3.545c2.011,1.164,4.233,2.328,6.614,3.651c2.381,1.27,4.604,2.804,6.667,4.551
		c2.011,1.746,3.757,3.81,5.133,6.191c1.376,2.381,1.796,4.339,1.796,7.673c0,2.804-0.476,5.344-1.376,7.62
		c-0.952,2.275-2.275,4.233-4.022,5.821c-1.746,1.587-3.969,2.857-6.508,3.704c-2.593,0.847-5.45,1.323-8.731,1.323
		c-5.08,0-9.472-1.429-13.123-4.286c-3.704-2.857-6.35-7.514-8.043-13.917l12.223-2.593c0.37,1.958,0.9,3.651,1.587,4.974
		c0.688,1.323,1.482,2.434,2.381,3.281s1.852,1.429,2.804,1.799c1.005,0.37,1.905,0.529,2.804,0.529c2.169,0,3.969-0.688,5.45-2.011
		c1.482-1.323,2.222-3.228,2.222-5.715c0-2.011-0.421-2.857-1.796-4.286c-1.376-1.482-3.069-2.804-5.133-4.074
		c-2.011-1.27-4.233-2.487-6.667-3.704c-2.381-1.217-4.604-2.646-6.667-4.233c-2.011-1.587-3.757-3.439-5.133-5.503
		c-1.376-2.117-2.064-4.656-2.064-7.726c0-5.609,1.64-10.054,4.868-13.282c3.281-3.228,8.096-4.868,14.604-4.868
		c2.752,0,5.239,0.37,7.461,1.164c2.222,0.794,4.18,1.852,5.821,3.281c1.693,1.429,3.069,3.069,4.18,4.974s1.905,4.022,2.487,6.297
		L483.574,159.431z"/>
	<polygon fill="#E30613" points="543.579,141.388 543.579,152.341 529.609,152.341 529.609,206.208 517.227,206.208 
		517.227,152.341 502.782,152.341 502.782,141.388 	"/>
	<g>
		<path fill="#E30613" d="M506.539,111.385h-3.863v-3.492h11.747v3.492h-3.863v19.79h-4.022L506.539,111.385L506.539,111.385z"/>
		<path fill="#E30613" d="M516.751,131.175v-23.282h4.021v9.472h4.233v-9.472h4.021v23.282h-4.021v-10.318h-4.233v10.318H516.751z"
			/>
		<path fill="#E30613" d="M532.89,131.175v-23.282h10.689v3.492h-6.72v5.979h5.186v3.492h-5.186v6.826h6.72v3.492H532.89z"/>
	</g>
	<rect x="306.945" y="120.222" fill="#E30613" width="188.376" height="10.953"/>
</g>
</svg>
