<?xml version="1.0" encoding="utf-8"?>
<!-- Generator: Adobe Illustrator 17.0.0, SVG Export Plug-In . SVG Version: 6.00 Build 0)  -->
<!DOCTYPE svg PUBLIC "-//W3C//DTD SVG 1.1//EN" "http://www.w3.org/Graphics/SVG/1.1/DTD/svg11.dtd">
<svg version="1.1" id="Layer_1" xmlns="http://www.w3.org/2000/svg" xmlns:xlink="http://www.w3.org/1999/xlink" x="0px" y="0px"
	 width="173.75px" height="229.25px" viewBox="346 10.75 173.75 229.25" enable-background="new 346 10.75 173.75 229.25"
	 xml:space="preserve" fill="#FFFFFF">
<path d="M444.904,129.78c7.056-3.276,13.608-7.308,19.152-11.088c12.6-8.568,21.924-17.388,23.184-18.396
	c0-0.504,0.252-1.008,0.252-1.26c0.252-1.512,0.756-3.528,1.512-5.796c2.268-8.568,6.048-21.42,0.252-24.444
	c-2.772-1.512-9.324-0.252-16.128,2.268c-6.552,7.308-14.616,13.356-24.696,15.12C449.188,113.4,446.668,125.244,444.904,129.78z" />
<path d="M513.7,90.468l6.048-16.38h-4.284l1.008-8.316h-3.78v-8.568h-5.04V47.88H501.1V37.296h-9.072
	c0,0-5.292,17.136-16.884,31.248c6.048-2.016,11.844-3.024,14.868-1.26c6.552,3.78,3.024,16.884,0.504,26.208
	c-0.504,2.268-1.26,4.284-1.512,5.544c-3.78,19.152-4.284,30.24-4.032,35.784l10.08-9.072l6.552-5.796h-5.544l15.372-14.616h-6.048
	l12.6-15.12H513.7V90.468z"/>
<path d="M483.712,139.356L483.712,139.356c0,0-0.504-2.772-0.504-9.072c0.252-5.292,0.756-14.112,3.276-27.468
	c-3.276,3.024-11.592,10.332-21.672,17.136c-6.048,4.032-13.104,8.316-20.916,11.844v0.252c0.252,2.772,1.512,26.964,5.04,43.344
	l20.412-13.104c15.372-8.82,14.364-21.42,14.364-21.42V139.356L483.712,139.356z"/>
<path d="M447.172,86.436c-1.512,0.252-3.276,0.252-5.04,0.252h-17.64c0,0-4.536,0.504-9.324-2.268
	c-1.26,1.764-3.024,3.78-5.04,5.796c-5.292,5.292-10.836,9.072-16.38,10.836c0,0.756-0.252,2.52-0.504,4.788
	c-0.252,8.064,1.008,24.192,15.372,29.232c2.52,0.756,5.544,1.26,8.82,1.512c8.316,0.252,17.136-2.268,25.452-6.048
	C444.4,127.512,447.676,116.676,447.172,86.436z"/>
<path d="M443.14,144.144c-0.504-5.544-0.756-9.576-0.756-11.34c-16.128,6.048-24.192,5.544-24.696,5.544
	c-8.568-0.252-15.12-3.276-19.656-8.82c-2.52-3.276-5.796-9.072-6.3-18.9c-0.252-4.032,0.252-7.56,0.252-9.072
	c-2.268,0.504-4.536,1.008-6.804,1.008c-3.78,0-7.56-0.252-11.088-0.756c0.756,17.136,13.86,35.784,31.5,44.604
	C421.216,153.972,440.116,145.656,443.14,144.144z"/>
<path d="M397.024,153.216c-17.136-10.584-25.2-24.696-28.98-34.776c-3.528-9.324-4.032-16.884-4.032-18.9
	c-4.284-1.26-8.064-2.772-11.088-4.788c-1.26,6.048-7.812,50.148,40.824,70.056C394.504,160.524,395.764,156.492,397.024,153.216z"
	/>
<path d="M372.832,101.556c-2.52-0.504-5.04-1.008-7.56-1.512c0.252,2.52,0.756,9.576,4.032,18.144
	c3.78,9.828,11.592,23.436,28.224,33.768c1.26-3.024,2.268-5.544,2.772-6.552C384.676,135.072,373.588,117.684,372.832,101.556z"/>
<path d="M378.376,48.636c-3.024,0.756-6.048,1.008-8.316,1.008c-2.52,0-4.284-0.252-5.04-0.504c-0.252,3.78-1.512,7.308-4.032,10.08
	l-7.812,34.02c7.056,4.536,19.656,7.56,32.256,7.56c10.08,0,18.396-6.3,23.688-11.844c1.764-2.016,3.528-3.78,4.788-5.544
	c-4.788-3.276-9.576-9.828-11.088-22.932l0,0l0,0c-0.252-1.26-0.252-2.772-0.252-4.284c-0.504-4.788-2.268-12.852-6.552-19.908
	C390.724,44.1,383.92,47.376,378.376,48.636z"/>
<path d="M361.24,35.28c0.756,1.26,2.268,4.032,3.276,7.56c0.504,1.764,0.756,3.276,0.756,4.788c1.26,0.252,6.804,1.008,13.104-0.504
	c7.308-1.764,12.852-6.048,16.632-12.348c-1.512-2.268-3.528-4.536-6.048-6.552c-2.772-2.016-5.544-3.528-8.064-4.284
	c-1.26-0.504-2.52-0.756-4.032-1.008C373.336,31.5,364.264,34.524,361.24,35.28z"/>
<path d="M358.972,56.952c0.756,0,1.512,0,2.268-0.252c5.544-9.072-0.504-19.656-1.764-21.168c-1.512,0.252-3.276,0.504-5.04,0.504
	c-0.756,3.528-2.52,11.592-2.52,11.844c-0.252,0.504-0.252,1.26-0.252,1.764C351.664,53.676,354.94,56.952,358.972,56.952z"/>
<path d="M354.688,34.524c4.284-0.252,8.82-1.512,9.828-2.016c3.528-1.512,8.316-4.536,10.836-9.828
	c-4.032-0.252-12.348,0.252-23.94,5.796l0,0c-2.016,1.26-4.536,3.528-5.292,6.804c0,0,1.512-1.008,3.528-1.008L354.688,34.524
	L354.688,34.524z"/>
<g>
	<path d="M349.648,27.72c12.096-6.3,20.916-6.804,25.2-6.552c0.504-1.008,1.008-2.016,1.008-3.276c0-3.276-2.772-6.048-6.048-6.048
		c-1.512,0-3.024,0.504-4.032,1.512c-1.008-1.26-2.52-2.016-4.284-2.016c-3.276,0-6.048,2.772-6.048,6.048l0,0
		c-0.756-0.252-1.512-0.504-2.52-0.504c-3.024,0.252-5.544,2.772-5.544,6.048C347.38,24.948,348.388,26.712,349.648,27.72z"/>
</g>
<path d="M450.448,217.476c-1.008-0.504-6.552-4.284-6.552-4.284s0.252-5.04-1.26-6.3h1.512c3.78,0,3.528-3.78,3.528-3.78
	c-5.04,0-5.292-3.276-5.04-4.284l1.26-18.144v-1.764l3.78-2.52c-2.016-9.324-3.528-21.42-4.284-30.744
	c-2.016,1.008-6.3,2.772-11.844,4.032c-3.276,0.756-7.056,1.512-11.088,1.512c-5.04,0-10.332-0.756-15.372-3.528
	c-1.26-0.504-2.268-1.26-3.276-1.764c-1.26,2.772-4.536,10.332-6.804,19.656l8.316,24.192c0,0,1.008,4.788,7.812,6.3
	c5.796,0.756,9.576,0,12.096-0.504c2.772-0.756,3.276-5.04,3.276-7.308v-9.072c9.828,0,10.08,9.072,10.08,9.072l0,0
	c0,0.252,0,0.756,0,1.008v21.168c0,0,0.252,2.016-5.796,2.268H420.46l2.268-15.624c-4.032,1.008-7.56,0.756-7.812,0.756l-3.78,16.38
	c-2.016,0.756-4.284,2.016-4.788,4.536c0,0,0.252-0.756,3.78-1.008l-1.008,4.788c1.26,0,2.772-0.252,4.536-0.504
	c2.52-0.504,4.788-1.26,5.544-1.764l0.504-2.772h6.804l-0.252,2.016l-6.048,2.268c-0.756,0.252-6.3,2.52-11.088,2.52
	c0,0,0,0-0.252,0l0,0l0,0c-0.756,0-1.512,0-2.268-0.252l-14.112-1.26l-6.048,1.512l9.576,2.016l-5.04,0.756h-7.056l-2.772,2.016l0,0
	c-2.268,1.512,21.924,0.756,21.924,0.756c0,3.528-1.764,3.528-1.764,3.528l-8.064,3.78l0.252,3.024l16.884-7.056l7.056-7.812
	l5.796,1.26l20.412-9.072l3.528,2.772h4.536C451.456,220.248,451.456,217.98,450.448,217.476z"/>
</svg>
