<?xml version="1.0" encoding="iso-8859-1"?>
<!-- Generator: Adobe Illustrator 17.0.0, SVG Export Plug-In . SVG Version: 6.00 Build 0)  -->
<!DOCTYPE svg PUBLIC "-//W3C//DTD SVG 1.1//EN" "http://www.w3.org/Graphics/SVG/1.1/DTD/svg11.dtd">
<svg version="1.1" id="Layer_1" xmlns="http://www.w3.org/2000/svg" xmlns:xlink="http://www.w3.org/1999/xlink" x="0px" y="0px"
	 width="165px" height="234px" viewBox="343 9 165 234" style="enable-background:new 343 9 165 234;" xml:space="preserve">
<g>
	<path style="fill:#E30613;" d="M461.047,91.526c0,19.626-15.896,35.547-35.547,35.547c-19.636,0-35.532-15.921-35.532-35.547
		c0-19.641,15.896-35.552,35.532-35.552C445.146,55.969,461.047,71.886,461.047,91.526z"/>
	<path style="fill:#E30613;" d="M425.5,9.006c-45.567,0-82.5,36.933-82.5,82.52c0,45.562,36.933,82.515,82.5,82.515
		c45.592,0,82.5-36.953,82.5-82.515C508,45.94,471.092,9.006,425.5,9.006z M425.5,152.561c-33.708,0-61.039-27.322-61.039-61.034
		c0-33.728,27.332-61.05,61.039-61.05c33.723,0,61.049,27.322,61.049,61.05C486.549,125.234,459.223,152.561,425.5,152.561z"/>
	<polygon style="fill:#E30613;" points="403.818,166.527 425.278,242.994 444.067,165.161 	"/>
</g>
</svg>
