<?xml version="1.0" encoding="iso-8859-1"?>
<!-- Generator: Adobe Illustrator 17.0.0, SVG Export Plug-In . SVG Version: 6.00 Build 0)  -->
<!DOCTYPE svg PUBLIC "-//W3C//DTD SVG 1.1//EN" "http://www.w3.org/Graphics/SVG/1.1/DTD/svg11.dtd">
<svg version="1.1" id="Layer_1" xmlns="http://www.w3.org/2000/svg" xmlns:xlink="http://www.w3.org/1999/xlink" x="0px" y="0px"
	 width="763.304px" height="416.737px" viewBox="0 0 763.304 416.737" style="enable-background:new 0 0 763.304 416.737;"
	 xml:space="preserve">
<path style="fill:#FFFFFF;" d="M110.254,64.057h0.22l5.39,34.1h-11L110.254,64.057z M102.884,110.037h14.96l2.42,17.6h13.2
	l-14.63-79.42h-16.94l-14.63,79.42h13.2L102.884,110.037z"/>
<path style="fill:#FFFFFF;" d="M206.684,74.727v-5.83c0-2.932-0.423-5.72-1.265-8.36c-0.844-2.64-2.09-4.95-3.74-6.93
	c-1.65-1.98-3.759-3.556-6.325-4.73c-2.568-1.172-5.538-1.76-8.91-1.76c-3.594,0-6.693,0.533-9.295,1.595
	c-2.604,1.064-4.768,2.513-6.49,4.345c-1.724,1.834-3.008,3.998-3.85,6.49c-0.844,2.494-1.265,5.134-1.265,7.92v40.92
	c0,2.788,0.421,5.428,1.265,7.92c0.842,2.494,2.126,4.658,3.85,6.49c1.722,1.834,3.886,3.283,6.49,4.345
	c2.602,1.062,5.701,1.595,9.295,1.595c3.372,0,6.342-0.533,8.91-1.595c2.566-1.062,4.675-2.511,6.325-4.345
	c1.65-1.832,2.896-3.996,3.74-6.49c0.842-2.492,1.265-5.132,1.265-7.92v-9.13h-13.64v9.57c0,2.568-0.478,4.548-1.43,5.94
	c-0.954,1.394-2.678,2.09-5.17,2.09c-2.788,0-4.694-0.715-5.72-2.145c-1.028-1.43-1.54-3.647-1.54-6.655v-40.26
	c0-3.006,0.512-5.225,1.54-6.655c1.026-1.43,2.932-2.145,5.72-2.145c1.76,0,3.3,0.753,4.62,2.255c1.32,1.504,1.98,3.943,1.98,7.315
	v6.16H206.684z"/>
<path style="fill:#FFFFFF;" d="M234.184,67.797c0-3.006,0.512-5.225,1.54-6.655c1.026-1.43,2.932-2.145,5.72-2.145
	c2.786,0,4.692,0.715,5.72,2.145c1.026,1.43,1.54,3.649,1.54,6.655v40.26c0,3.008-0.514,5.225-1.54,6.655
	c-1.028,1.43-2.934,2.145-5.72,2.145c-2.788,0-4.694-0.715-5.72-2.145c-1.028-1.43-1.54-3.647-1.54-6.655V67.797z M220.544,108.387
	c0,2.788,0.421,5.428,1.265,7.92c0.842,2.494,2.126,4.658,3.85,6.49c1.722,1.834,3.886,3.283,6.49,4.345
	c2.602,1.062,5.701,1.595,9.295,1.595c3.592,0,6.691-0.533,9.295-1.595c2.602-1.062,4.766-2.511,6.49-4.345
	c1.722-1.832,3.006-3.996,3.85-6.49c0.842-2.492,1.265-5.132,1.265-7.92v-40.92c0-2.786-0.423-5.426-1.265-7.92
	c-0.844-2.492-2.128-4.656-3.85-6.49c-1.724-1.832-3.888-3.281-6.49-4.345c-2.604-1.062-5.703-1.595-9.295-1.595
	c-3.594,0-6.693,0.533-9.295,1.595c-2.604,1.064-4.768,2.513-6.49,4.345c-1.724,1.834-3.008,3.998-3.85,6.49
	c-0.844,2.494-1.265,5.134-1.265,7.92V108.387z"/>
<path style="fill:#FFFFFF;" d="M312.284,48.217l-9.68,46.42h-0.22l-9.68-46.42h-17.93v79.42h11.88v-62.04h0.22l12.32,62.04h6.6
	l12.32-62.04h0.22v62.04h11.88v-79.42H312.284z"/>
<path style="fill:#FFFFFF;" d="M379.284,48.217l-9.68,46.42h-0.22l-9.68-46.42h-17.93v79.42h11.88v-62.04h0.22l12.32,62.04h6.6
	l12.32-62.04h0.22v62.04h11.88v-79.42H379.284z"/>
<path style="fill:#FFFFFF;" d="M409.544,107.617c0,6.894,1.851,12.138,5.555,15.73c3.702,3.594,8.817,5.39,15.345,5.39
	c6.526,0,11.641-1.796,15.345-5.39c3.702-3.592,5.555-8.836,5.555-15.73v-59.4h-13.64v59.95c0,5.794-2.42,8.69-7.26,8.69
	s-7.26-2.896-7.26-8.69v-59.95h-13.64V107.617z"/>
<path style="fill:#FFFFFF;" d="M476.864,127.637v-49.61h0.22l17.38,49.61h11.88v-79.42h-12.32v45.43h-0.22l-16.61-45.43h-12.65v79.42
	H476.864z"/>
<path style="fill:#FFFFFF;" d="M535.054,127.637v-79.42h-13.64v79.42H535.054z"/>
<path style="fill:#FFFFFF;" d="M558.464,127.637h13.64v-67.54h13.2v-11.88h-40.04v11.88h13.2V127.637z"/>
<path style="fill:#FFFFFF;" d="M618.184,94.637l16.5-46.42h-13.86l-9.13,30.25h-0.22l-9.57-30.25h-13.86l16.5,46.42v33h13.64V94.637z"
	/>
<path style="fill:#FFFFFF;" d="M106.184,211.797c0-3.006,0.512-5.225,1.54-6.655c1.026-1.43,2.932-2.145,5.72-2.145
	c2.786,0,4.692,0.715,5.72,2.145c1.026,1.43,1.54,3.649,1.54,6.655v40.26c0,3.008-0.514,5.225-1.54,6.655
	c-1.028,1.43-2.934,2.145-5.72,2.145c-2.788,0-4.694-0.715-5.72-2.145c-1.028-1.43-1.54-3.647-1.54-6.655V211.797z M92.544,252.387
	c0,2.788,0.421,5.428,1.265,7.92c0.842,2.494,2.126,4.658,3.85,6.49c1.722,1.834,3.886,3.283,6.49,4.345
	c2.602,1.062,5.701,1.595,9.295,1.595c3.592,0,6.691-0.533,9.295-1.595c2.602-1.062,4.766-2.511,6.49-4.345
	c1.722-1.832,3.006-3.996,3.85-6.49c0.842-2.492,1.265-5.132,1.265-7.92v-40.92c0-2.786-0.423-5.426-1.265-7.92
	c-0.844-2.492-2.128-4.656-3.85-6.49c-1.724-1.832-3.888-3.281-6.49-4.345c-2.604-1.062-5.703-1.595-9.295-1.595
	c-3.594,0-6.693,0.533-9.295,1.595c-2.604,1.064-4.768,2.513-6.49,4.345c-1.724,1.834-3.008,3.998-3.85,6.49
	c-0.844,2.494-1.265,5.134-1.265,7.92V252.387z"/>
<path style="fill:#FFFFFF;" d="M161.184,271.637v-35.2h18.26v-11.88h-18.26v-20.46h24.42v-11.88h-38.06v79.42H161.184z"/>
<path style="fill:#FFFFFF;" d="M236.054,271.637v-79.42h-13.64v79.42H236.054z"/>
<path style="fill:#FFFFFF;" d="M263.864,271.637v-49.61h0.22l17.38,49.61h11.88v-79.42h-12.32v45.43h-0.22l-16.61-45.43h-12.65v79.42
	H263.864z"/>
<path style="fill:#FFFFFF;" d="M320.184,203.437h4.73c3.666,0,6.215,0.808,7.645,2.42c1.43,1.614,2.145,4.51,2.145,8.69v34.76
	c0,4.18-0.715,7.078-2.145,8.69c-1.43,1.614-3.979,2.42-7.645,2.42h-4.73V203.437z M306.544,271.637h20.24
	c7.112,0,12.485-1.942,16.115-5.83c3.63-3.886,5.445-9.936,5.445-18.15v-31.46c0-8.212-1.815-14.262-5.445-18.15
	c-3.63-3.886-9.003-5.83-16.115-5.83h-20.24V271.637z"/>
<path style="fill:#FFFFFF;" d="M399.604,271.637v-11.88h-24.42v-23.32h17.6v-11.88h-17.6v-20.46h22.88v-11.88h-36.52v79.42H399.604z"/>
<path style="fill:#FFFFFF;" d="M424.184,203.437h5.28c2.2,0,4.051,0.203,5.555,0.605c1.502,0.404,2.712,1.064,3.63,1.98
	c0.916,0.918,1.557,2.164,1.925,3.74c0.366,1.578,0.55,3.539,0.55,5.885c0,2.348-0.184,4.309-0.55,5.885
	c-0.368,1.578-1.009,2.843-1.925,3.795c-0.918,0.954-2.128,1.614-3.63,1.98c-1.504,0.368-3.355,0.55-5.555,0.55h-5.28V203.437z
	 M424.184,271.637v-32.56h5.94c4.18,0,7.827-0.421,10.945-1.265c3.116-0.842,5.682-2.2,7.7-4.07c2.016-1.87,3.52-4.29,4.51-7.26
	s1.485-6.581,1.485-10.835c0-8.432-1.999-14.446-5.995-18.04c-3.998-3.592-10.213-5.39-18.645-5.39h-19.58v79.42H424.184z"/>
<path style="fill:#FFFFFF;" d="M503.604,271.637v-11.88h-24.42v-23.32h17.6v-11.88h-17.6v-20.46h22.88v-11.88h-36.52v79.42H503.604z"/>
<path style="fill:#FFFFFF;" d="M526.864,271.637v-49.61h0.22l17.38,49.61h11.88v-79.42h-12.32v45.43h-0.22l-16.61-45.43h-12.65v79.42
	H526.864z"/>
<path style="fill:#FFFFFF;" d="M583.184,203.437h4.73c3.666,0,6.215,0.808,7.645,2.42c1.43,1.614,2.145,4.51,2.145,8.69v34.76
	c0,4.18-0.715,7.078-2.145,8.69c-1.43,1.614-3.979,2.42-7.645,2.42h-4.73V203.437z M569.544,271.637h20.24
	c7.112,0,12.485-1.942,16.115-5.83c3.63-3.886,5.445-9.936,5.445-18.15v-31.46c0-8.212-1.815-14.262-5.445-18.15
	c-3.63-3.886-9.003-5.83-16.115-5.83h-20.24V271.637z"/>
<path style="fill:#FFFFFF;" d="M662.604,271.637v-11.88h-24.42v-23.32h17.6v-11.88h-17.6v-20.46h22.88v-11.88h-36.52v79.42H662.604z"/>
<path style="fill:#FFFFFF;" d="M685.864,271.637v-49.61h0.22l17.38,49.61h11.88v-79.42h-12.32v45.43h-0.22l-16.61-45.43h-12.65v79.42
	H685.864z"/>
<path style="fill:#FFFFFF;" d="M736.464,271.637h13.64v-67.54h13.2v-11.88h-40.04v11.88h13.2V271.637z"/>
<path style="fill:#FFFFFF;" d="M133.684,362.727v-5.83c0-2.932-0.423-5.72-1.265-8.36c-0.844-2.64-2.09-4.95-3.74-6.93
	c-1.65-1.98-3.759-3.556-6.325-4.73c-2.568-1.172-5.538-1.76-8.91-1.76c-3.594,0-6.693,0.533-9.295,1.595
	c-2.604,1.064-4.768,2.513-6.49,4.345c-1.724,1.834-3.008,3.998-3.85,6.49c-0.844,2.494-1.265,5.134-1.265,7.92v40.92
	c0,2.788,0.421,5.428,1.265,7.92c0.842,2.494,2.126,4.658,3.85,6.49c1.722,1.834,3.886,3.283,6.49,4.345
	c2.602,1.062,5.701,1.595,9.295,1.595c3.372,0,6.342-0.533,8.91-1.595c2.566-1.062,4.675-2.511,6.325-4.345
	c1.65-1.832,2.896-3.996,3.74-6.49c0.842-2.492,1.265-5.132,1.265-7.92v-9.13h-13.64v9.57c0,2.568-0.478,4.548-1.43,5.94
	c-0.954,1.394-2.678,2.09-5.17,2.09c-2.788,0-4.694-0.715-5.72-2.145c-1.028-1.43-1.54-3.647-1.54-6.655v-40.26
	c0-3.006,0.512-5.225,1.54-6.655c1.026-1.43,2.932-2.145,5.72-2.145c1.76,0,3.3,0.753,4.62,2.255c1.32,1.504,1.98,3.943,1.98,7.315
	v6.16H133.684z"/>
<path style="fill:#FFFFFF;" d="M161.184,347.437h4.84c3.666,0,6.27,0.863,7.81,2.585c1.54,1.724,2.31,4.933,2.31,9.625
	c0,2.348-0.184,4.309-0.55,5.885c-0.368,1.578-0.954,2.843-1.76,3.795c-0.808,0.954-1.853,1.614-3.135,1.98
	c-1.284,0.368-2.843,0.55-4.675,0.55h-4.84V347.437z M161.184,383.077c1.246,0,2.511-0.017,3.795-0.055
	c1.282-0.036,2.365-0.127,3.245-0.275l9.68,32.89h13.86l-11.55-35.97c1.172-0.512,2.327-1.246,3.465-2.2
	c1.136-0.952,2.162-2.217,3.08-3.795c0.916-1.576,1.65-3.501,2.2-5.775c0.55-2.272,0.825-5.022,0.825-8.25
	c0-8.432-1.944-14.446-5.83-18.04c-3.888-3.592-9.644-5.39-17.27-5.39h-19.14v79.42h13.64V383.077z"/>
<path style="fill:#FFFFFF;" d="M240.604,415.637v-11.88h-24.42v-23.32h17.6v-11.88h-17.6v-20.46h22.88v-11.88h-36.52v79.42H240.604z"/>
<path style="fill:#FFFFFF;" d="M269.254,352.057h0.22l5.39,34.1h-11L269.254,352.057z M261.884,398.037h14.96l2.42,17.6h13.2
	l-14.63-79.42h-16.94l-14.63,79.42h13.2L261.884,398.037z"/>
<path style="fill:#FFFFFF;" d="M304.464,415.637h13.64v-67.54h13.2v-11.88h-40.04v11.88h13.2V415.637z"/>
<path style="fill:#FFFFFF;" d="M355.054,415.637v-79.42h-13.64v79.42H355.054z"/>
<path style="fill:#FFFFFF;" d="M388.474,391.327h-0.22l-9.9-55.11h-13.42l16.61,79.42h13.64l16.61-79.42h-13.42L388.474,391.327z"/>
<path style="fill:#FFFFFF;" d="M457.604,415.637v-11.88h-24.42v-23.32h17.6v-11.88h-17.6v-20.46h22.88v-11.88h-36.52v79.42H457.604z"/>
<path style="fill:#FFFFFF;" d="M506.384,354.367c-0.294-2.786-0.935-5.352-1.925-7.7c-0.99-2.346-2.274-4.381-3.85-6.105
	c-1.578-1.722-3.465-3.061-5.665-4.015c-2.2-0.952-4.694-1.43-7.48-1.43c-6.748,0-11.954,1.705-15.62,5.115
	c-3.668,3.41-5.5,8.305-5.5,14.685c0,3.814,0.677,7.15,2.035,10.01c1.356,2.86,3.061,5.428,5.115,7.7
	c2.052,2.274,4.29,4.364,6.71,6.27c2.42,1.908,4.656,3.814,6.71,5.72c2.052,1.908,3.757,3.888,5.115,5.94
	c1.356,2.054,2.035,4.4,2.035,7.04c0,2.348-0.734,4.144-2.2,5.39c-1.468,1.248-3.374,1.87-5.72,1.87c-2.2,0-4.034-0.99-5.5-2.97
	c-1.468-1.98-2.348-4.986-2.64-9.02l-12.98,1.87c0.146,3.008,0.696,5.83,1.65,8.47c0.952,2.64,2.291,4.969,4.015,6.985
	c1.722,2.018,3.831,3.613,6.325,4.785c2.492,1.172,5.316,1.76,8.47,1.76c3.152,0,6.067-0.44,8.745-1.32
	c2.676-0.88,4.95-2.181,6.82-3.905c1.87-1.722,3.336-3.85,4.4-6.38c1.062-2.53,1.595-5.445,1.595-8.745
	c0-3.592-0.679-6.801-2.035-9.625c-1.358-2.822-3.063-5.407-5.115-7.755c-2.054-2.346-4.29-4.491-6.71-6.435
	c-2.42-1.942-4.658-3.867-6.71-5.775c-2.054-1.906-3.759-3.812-5.115-5.72c-1.358-1.906-2.035-3.996-2.035-6.27
	c0-2.492,0.586-4.417,1.76-5.775c1.172-1.356,2.86-2.035,5.06-2.035c0.732,0,1.502,0.148,2.31,0.44
	c0.806,0.294,1.557,0.77,2.255,1.43c0.696,0.66,1.282,1.559,1.76,2.695c0.476,1.138,0.787,2.549,0.935,4.235L506.384,354.367z"/>
<path style="fill-rule:evenodd;clip-rule:evenodd;fill:#FFFFFF;" d="M0,0h631v10H0V0z"/>
<path style="fill-rule:evenodd;clip-rule:evenodd;fill:#FFFFFF;" d="M0,156h631v10H0V156z"/>
<path style="fill-rule:evenodd;clip-rule:evenodd;fill:#FFFFFF;" d="M88,301h672v10H88V301z"/>
</svg>
