<?xml version="1.0" encoding="utf-8"?>
<!-- Generator: Adobe Illustrator 17.0.0, SVG Export Plug-In . SVG Version: 6.00 Build 0)  -->
<!DOCTYPE svg PUBLIC "-//W3C//DTD SVG 1.1//EN" "http://www.w3.org/Graphics/SVG/1.1/DTD/svg11.dtd">
<svg version="1.1" id="Layer_1" xmlns="http://www.w3.org/2000/svg" xmlns:xlink="http://www.w3.org/1999/xlink" x="0px" y="0px"
	 width="763.304px" height="239.13px" viewBox="0 0 763.304 239.13" enable-background="new 0 0 763.304 239.13"
	 xml:space="preserve">
<g>
	<g>
		<path fill="#FFFFFF" d="M107.336,136.526c0,2.53,0.431,4.386,1.298,5.597c0.861,1.204,2.462,1.81,4.81,1.81
			c2.341,0,3.949-0.606,4.81-1.81c0.868-1.211,1.298-3.068,1.298-5.597v-33.92c0-2.523-0.431-4.393-1.298-5.597
			c-0.861-1.204-2.469-1.81-4.81-1.81c-2.348,0-3.949,0.605-4.81,1.81c-0.868,1.204-1.298,3.074-1.298,5.597V136.526z
			 M95.852,102.337c0-2.355,0.35-4.575,1.063-6.674c0.713-2.099,1.79-3.922,3.249-5.463c1.446-1.547,3.263-2.758,5.456-3.653
			c2.186-0.895,4.803-1.352,7.824-1.352c3.027,0,5.638,0.457,7.831,1.352c2.186,0.895,4.01,2.106,5.456,3.653
			c1.453,1.541,2.53,3.364,3.243,5.463s1.063,4.319,1.063,6.674v34.458c0,2.355-0.35,4.575-1.063,6.674s-1.79,3.922-3.243,5.456
			c-1.446,1.547-3.27,2.779-5.456,3.673c-2.193,0.895-4.803,1.332-7.831,1.332c-3.021,0-5.638-0.437-7.824-1.332
			c-2.193-0.895-4.01-2.126-5.456-3.673c-1.46-1.534-2.536-3.357-3.249-5.456s-1.063-4.319-1.063-6.674V102.337z"/>
	</g>
	<polygon fill="#FFFFFF" points="142.15,153.009 142.15,86.124 174.193,86.124 174.193,96.121 153.634,96.121 153.634,113.364 
		169.006,113.364 169.006,123.367 153.634,123.367 153.634,153.009 	"/>
	<rect x="213.407" y="87.049" fill="#FFFFFF" width="11.477" height="66.885"/>
	<polygon fill="#FFFFFF" points="237.571,153.934 237.571,87.049 248.221,87.049 262.201,125.308 262.389,125.308 262.389,87.049 
		272.756,87.049 272.756,153.934 262.759,153.934 248.134,112.156 247.938,112.156 247.938,153.934 	"/>
	<g>
		<path fill="#FFFFFF" d="M295.353,144.487h3.976c3.088,0,5.241-0.686,6.445-2.045c1.198-1.352,1.796-3.794,1.796-7.319v-29.265
			c0-3.518-0.599-5.961-1.796-7.319c-1.204-1.359-3.357-2.038-6.445-2.038h-3.976V144.487z M283.869,87.048h17.041
			c5.987,0,10.508,1.641,13.563,4.904c3.054,3.276,4.581,8.376,4.581,15.292v26.493c0,6.916-1.527,12.015-4.581,15.292
			c-3.054,3.27-7.575,4.904-13.563,4.904h-17.041L283.869,87.048L283.869,87.048z"/>
	</g>
	<polygon fill="#FFFFFF" points="330.168,153.934 330.168,87.049 360.913,87.049 360.913,97.053 341.652,97.053 341.652,114.289 
		356.459,114.289 356.459,124.292 341.652,124.292 341.652,143.93 362.211,143.93 362.211,153.934 	"/>
	<g>
		<path fill="#FFFFFF" d="M382.756,117.06h4.44c1.85,0,3.418-0.148,4.682-0.458c1.258-0.316,2.281-0.868,3.054-1.668
			c0.767-0.807,1.305-1.87,1.621-3.202c0.309-1.325,0.457-2.974,0.457-4.951c0-1.978-0.148-3.626-0.457-4.958
			c-0.316-1.325-0.854-2.368-1.621-3.142c-0.774-0.774-1.796-1.332-3.054-1.668c-1.265-0.343-2.832-0.518-4.682-0.518h-4.44V117.06z
			 M371.273,153.934V87.049h16.476c7.104,0,12.338,1.514,15.709,4.541c3.35,3.027,5.039,8.093,5.039,15.191
			c0,3.579-0.417,6.627-1.251,9.129c-0.834,2.503-2.099,4.534-3.788,6.109c-1.709,1.581-3.868,2.725-6.492,3.431
			c-2.624,0.713-5.685,1.063-9.217,1.063h-4.992v27.421L371.273,153.934L371.273,153.934z"/>
	</g>
	<polygon fill="#FFFFFF" points="417.571,153.934 417.571,87.049 448.316,87.049 448.316,97.053 429.055,97.053 429.055,114.289 
		443.862,114.289 443.862,124.292 429.055,124.292 429.055,143.93 449.614,143.93 449.614,153.934 	"/>
	<polygon fill="#FFFFFF" points="458.685,153.934 458.685,87.049 469.334,87.049 483.314,125.308 483.502,125.308 483.502,87.049 
		493.869,87.049 493.869,153.934 483.872,153.934 469.247,112.156 469.052,112.156 469.052,153.934 	"/>
	<g>
		<path fill="#FFFFFF" d="M516.466,144.487h3.983c3.081,0,5.234-0.686,6.438-2.045c1.198-1.352,1.796-3.794,1.796-7.319v-29.265
			c0-3.518-0.599-5.961-1.796-7.319c-1.204-1.359-3.357-2.038-6.438-2.038h-3.983V144.487z M504.982,87.048h17.041
			c5.987,0,10.508,1.641,13.563,4.904c3.054,3.276,4.581,8.376,4.581,15.292v26.493c0,6.916-1.527,12.015-4.581,15.292
			c-3.054,3.27-7.575,4.904-13.563,4.904h-17.041V87.048z"/>
	</g>
	<polygon fill="#FFFFFF" points="551.282,153.934 551.282,87.049 582.026,87.049 582.026,97.053 562.765,97.053 562.765,114.289 
		577.573,114.289 577.573,124.292 562.765,124.292 562.765,143.93 583.325,143.93 583.325,153.934 	"/>
	<polygon fill="#FFFFFF" points="592.395,153.934 592.395,87.049 603.045,87.049 617.024,125.308 617.213,125.308 617.213,87.049 
		627.58,87.049 627.58,153.934 617.583,153.934 602.957,112.156 602.762,112.156 602.762,153.934 	"/>
	<polygon fill="#FFFFFF" points="645.366,97.05 634.252,97.05 634.252,87.046 667.95,87.046 667.95,97.05 656.836,97.05 
		656.836,153.93 645.366,153.93 	"/>
	<rect x="0.503" y="0.467" fill="#FFFFFF" width="178.877" height="66.885"/>
	<path fill="#FFFFFF" d="M220.268,42.521h9.27l-4.548-28.72h-0.175L220.268,42.521z M216.575,67.353h-11.114l12.311-66.885h14.262
		l12.311,66.885h-11.114l-2.032-14.827h-12.594L216.575,67.353z"/>
	<g>
		<path fill="#FFFFFF" d="M296.369,23.249v-5.187c0-2.846-0.552-4.898-1.668-6.162c-1.117-1.265-2.408-1.897-3.888-1.897
			c-2.348,0-3.949,0.599-4.81,1.81c-0.868,1.204-1.298,3.074-1.298,5.597v33.455c0,2.536,0.431,4.393,1.298,5.597
			c0.861,1.211,2.462,1.816,4.81,1.816c2.099,0,3.545-0.585,4.353-1.763c0.801-1.177,1.204-2.846,1.204-5.005v-8.06h11.484v7.689
			c0,2.348-0.363,4.568-1.063,6.674c-0.713,2.099-1.763,3.922-3.155,5.456c-1.386,1.547-3.169,2.772-5.328,3.666
			c-2.16,0.895-4.649,1.339-7.494,1.339c-3.021,0-5.638-0.444-7.824-1.339c-2.193-0.895-4.01-2.119-5.456-3.666
			c-1.46-1.534-2.536-3.357-3.249-5.456c-0.713-2.106-1.063-4.326-1.063-6.674V17.141c0-2.355,0.35-4.575,1.063-6.68
			c0.713-2.099,1.79-3.915,3.249-5.456c1.446-1.547,3.263-2.765,5.456-3.66C285.176,0.45,287.793,0,290.814,0
			c2.846,0,5.335,0.491,7.494,1.48c2.16,0.996,3.942,2.321,5.328,3.989c1.393,1.668,2.442,3.606,3.155,5.826
			c0.7,2.227,1.063,4.575,1.063,7.05v4.904C307.854,23.249,296.369,23.249,296.369,23.249z"/>
		<path fill="#FFFFFF" d="M331.001,50.869c0,2.53,0.431,4.386,1.298,5.597c0.861,1.204,2.462,1.81,4.81,1.81
			c2.341,0,3.949-0.606,4.817-1.81c0.861-1.211,1.292-3.068,1.292-5.597V17.41c0-2.523-0.431-4.393-1.292-5.597
			c-0.868-1.204-2.476-1.81-4.817-1.81c-2.348,0-3.949,0.605-4.81,1.81c-0.868,1.204-1.298,3.074-1.298,5.597V50.869z
			 M319.517,17.142c0-2.355,0.35-4.575,1.063-6.674c0.713-2.106,1.79-3.922,3.249-5.463c1.446-1.547,3.263-2.758,5.456-3.653
			C331.471,0.457,334.088,0,337.109,0c3.027,0,5.638,0.457,7.831,1.352c2.186,0.895,4.01,2.106,5.456,3.653
			c1.453,1.541,2.53,3.357,3.243,5.463c0.713,2.099,1.063,4.319,1.063,6.674v33.997c0,2.348-0.35,4.575-1.063,6.674
			c-0.713,2.099-1.789,3.922-3.243,5.456c-1.446,1.554-3.27,2.779-5.456,3.673c-2.193,0.895-4.803,1.332-7.831,1.332
			c-3.021,0-5.638-0.437-7.824-1.332c-2.193-0.895-4.01-2.119-5.456-3.673c-1.46-1.534-2.536-3.357-3.249-5.456
			c-0.713-2.099-1.063-4.326-1.063-6.674V17.142z"/>
	</g>
	<polygon fill="#FFFFFF" points="411.834,0.467 411.834,67.351 401.837,67.351 401.837,15.106 401.655,15.106 391.275,67.351 
		385.718,67.351 375.351,15.106 375.169,15.106 375.169,67.351 365.165,67.351 365.165,0.467 380.262,0.467 388.416,39.56 
		388.597,39.56 396.744,0.467 	"/>
	<polygon fill="#FFFFFF" points="468.401,0.467 468.401,67.351 458.404,67.351 458.404,15.106 458.223,15.106 447.842,67.351 
		442.285,67.351 431.918,15.106 431.736,15.106 431.736,67.351 421.733,67.351 421.733,0.467 436.829,0.467 444.983,39.56 
		445.158,39.56 453.311,0.467 	"/>
	<g>
		<path fill="#FFFFFF" d="M478.961,0.467h11.484v50.49c0,4.877,2.032,7.319,6.109,7.319c4.084,0,6.109-2.442,6.109-7.319V0.467
			h11.484v50.025c0,5.806-1.554,10.226-4.669,13.253c-3.128,3.027-7.427,4.534-12.923,4.534s-9.795-1.507-12.924-4.534
			c-3.115-3.027-4.669-7.447-4.669-13.253V0.467H478.961z"/>
	</g>
	<polygon fill="#FFFFFF" points="525.259,67.353 525.259,0.468 535.909,0.468 549.888,38.727 550.077,38.727 550.077,0.468 
		560.444,0.468 560.444,67.353 550.447,67.353 535.821,25.575 535.626,25.575 535.626,67.353 	"/>
	<rect x="573.132" y="0.467" fill="#FFFFFF" width="11.477" height="66.885"/>
	<polygon fill="#FFFFFF" points="603.971,10.468 592.857,10.468 592.857,0.464 626.555,0.464 626.555,10.468 615.441,10.468 
		615.441,67.355 603.971,67.355 	"/>
	<polygon fill="#FFFFFF" points="654.057,67.353 642.58,67.353 642.58,39.561 628.688,0.468 640.353,0.468 648.413,25.938 
		648.601,25.938 656.291,0.468 667.949,0.468 654.057,39.561 	"/>
	<rect x="468.836" y="171.782" fill="#FFFFFF" width="294.468" height="66.885"/>
	<g>
		<path fill="#FFFFFF" d="M119.001,194.106v-5.187c0-2.846-0.552-4.898-1.668-6.162c-1.117-1.265-2.408-1.897-3.888-1.897
			c-2.348,0-3.949,0.599-4.81,1.81c-0.868,1.204-1.298,3.074-1.298,5.597v33.452c0,2.536,0.431,4.393,1.298,5.597
			c0.861,1.211,2.462,1.81,4.81,1.81c2.099,0,3.545-0.579,4.353-1.756c0.801-1.177,1.204-2.846,1.204-5.005v-8.066h11.484v7.69
			c0,2.355-0.363,4.575-1.063,6.68c-0.713,2.099-1.763,3.915-3.155,5.456c-1.386,1.547-3.169,2.772-5.328,3.666
			c-2.16,0.895-4.649,1.339-7.494,1.339c-3.021,0-5.638-0.444-7.824-1.339c-2.193-0.895-4.01-2.119-5.456-3.666
			c-1.46-1.541-2.536-3.357-3.249-5.456c-0.713-2.106-1.063-4.326-1.063-6.68v-33.997c0-2.348,0.35-4.568,1.063-6.674
			c0.713-2.099,1.79-3.922,3.249-5.456c1.446-1.547,3.263-2.765,5.456-3.66c2.186-0.895,4.803-1.345,7.824-1.345
			c2.846,0,5.335,0.491,7.494,1.48c2.16,0.989,3.942,2.321,5.328,3.989c1.393,1.668,2.442,3.606,3.155,5.826
			c0.7,2.227,1.063,4.575,1.063,7.05v4.904L119.001,194.106L119.001,194.106z"/>
		<path fill="#FFFFFF" d="M153.636,201.794h4.07c1.547,0,2.852-0.148,3.936-0.458c1.076-0.316,1.958-0.868,2.644-1.668
			c0.673-0.807,1.164-1.87,1.48-3.202c0.309-1.325,0.457-2.974,0.457-4.951c0-3.949-0.639-6.653-1.938-8.107
			c-1.298-1.453-3.498-2.18-6.579-2.18h-4.07V201.794z M153.636,238.667h-11.484v-66.885h16.112c6.411,0,11.269,1.514,14.531,4.541
			c3.276,3.027,4.911,8.093,4.911,15.191c0,2.711-0.229,5.032-0.693,6.943c-0.457,1.924-1.083,3.539-1.857,4.871
			c-0.767,1.325-1.628,2.388-2.59,3.196c-0.955,0.8-1.931,1.413-2.913,1.843l9.721,30.301h-11.665l-8.147-27.704
			c-0.74,0.128-1.655,0.202-2.731,0.229c-1.09,0.04-2.153,0.054-3.196,0.054L153.636,238.667L153.636,238.667z"/>
	</g>
	<polygon fill="#FFFFFF" points="188.449,238.667 188.449,171.782 219.193,171.782 219.193,181.779 199.933,181.779 
		199.933,199.022 214.747,199.022 214.747,209.026 199.933,209.026 199.933,228.663 220.492,228.663 220.492,238.667 	"/>
	<path fill="#FFFFFF" d="M239.925,213.836h9.264l-4.541-28.713h-0.182L239.925,213.836z M236.225,238.667h-11.114l12.311-66.885
		h14.262l12.311,66.885h-11.114l-2.025-14.827h-12.601L236.225,238.667z"/>
	<polygon fill="#FFFFFF" points="273.913,181.781 262.799,181.781 262.799,171.778 296.497,171.778 296.497,181.781 
		285.384,181.781 285.384,238.669 273.913,238.669 	"/>
	<rect x="304.84" y="171.782" fill="#FFFFFF" width="11.47" height="66.885"/>
	<polygon fill="#FFFFFF" points="352.434,171.78 363.729,171.78 349.743,238.665 338.266,238.665 324.279,171.78 335.575,171.78 
		343.91,218.186 344.092,218.186 	"/>
	<polygon fill="#FFFFFF" points="370.116,238.667 370.116,171.782 400.861,171.782 400.861,181.779 381.6,181.779 381.6,199.022 
		396.414,199.022 396.414,209.026 381.6,209.026 381.6,228.663 402.159,228.663 402.159,238.667 	"/>
	<g>
		<path fill="#FFFFFF" d="M432.16,188.265c-0.135-1.413-0.39-2.604-0.794-3.559c-0.404-0.962-0.895-1.716-1.48-2.274
			c-0.579-0.552-1.211-0.949-1.897-1.204c-0.679-0.242-1.325-0.37-1.938-0.37c-1.857,0-3.276,0.572-4.258,1.716
			c-0.996,1.137-1.487,2.765-1.487,4.871c0,1.904,0.572,3.666,1.716,5.274c1.137,1.608,2.57,3.209,4.299,4.817
			c1.729,1.608,3.619,3.222,5.651,4.864c2.038,1.635,3.915,3.451,5.651,5.416c1.722,1.985,3.155,4.151,4.306,6.539
			c1.144,2.368,1.715,4.611,1.715,7.639c0,2.785-0.451,5.234-1.345,7.367c-0.895,2.133-2.133,3.922-3.707,5.369
			c-1.567,1.46-3.485,2.55-5.738,3.297c-2.254,0.733-4.716,1.103-7.367,1.103s-5.032-0.491-7.124-1.473
			c-2.099-0.996-3.875-2.334-5.321-4.03c-1.46-1.702-2.583-3.66-3.384-5.887c-0.807-2.227-1.271-4.602-1.393-7.138l10.932-1.574
			c0.242,3.397,0.989,5.934,2.22,7.602c1.238,1.668,2.778,2.503,4.635,2.503c1.971,0,3.579-0.525,4.81-1.581
			c1.238-1.043,1.85-2.563,1.85-4.534c0-2.234-0.572-3.737-1.709-5.466c-1.144-1.729-2.583-3.397-4.306-5.005
			c-1.729-1.615-3.613-3.209-5.651-4.817c-2.038-1.608-3.915-3.37-5.644-5.281c-1.729-1.917-3.169-4.077-4.312-6.492
			c-1.144-2.402-1.709-5.214-1.709-8.423c0-5.375,1.541-9.499,4.622-12.372c3.095-2.866,7.474-4.306,13.152-4.306
			c2.355,0,4.44,0.404,6.304,1.204c1.843,0.807,3.431,1.931,4.763,3.384c1.325,1.453,2.408,3.162,3.243,5.147
			c0.834,1.964,1.379,4.131,1.615,6.479L432.16,188.265z"/>
	</g>
</g>
</svg>
